<svg width="13" height="13" viewBox="0 0 13 13" fill="none" xmlns="http://www.w3.org/2000/svg">
    <g clip-path="url(#clip0_254_189)">
        <path fill-rule="evenodd" clip-rule="evenodd"
            d="M6.50008 1.62502C3.80769 1.62502 1.62508 3.80763 1.62508 6.50002C1.62508 9.19241 3.80769 11.375 6.50008 11.375C9.19247 11.375 11.3751 9.19241 11.3751 6.50002C11.3751 3.80763 9.19247 1.62502 6.50008 1.62502ZM0.541748 6.50002C0.541748 3.20932 3.20938 0.541687 6.50008 0.541687C9.79078 0.541687 12.4584 3.20932 12.4584 6.50002C12.4584 9.79072 9.79078 12.4584 6.50008 12.4584C3.20938 12.4584 0.541748 9.79072 0.541748 6.50002ZM6.50008 2.70835C6.79924 2.70835 7.04175 2.95087 7.04175 3.25002V6.16525L8.90899 7.09887C9.17656 7.23266 9.28502 7.55802 9.15123 7.82559C9.01744 8.09317 8.69208 8.20162 8.42451 8.06783L6.25784 6.9845C6.07433 6.89275 5.95841 6.70519 5.95841 6.50002V3.25002C5.95841 2.95087 6.20093 2.70835 6.50008 2.70835Z"
            fill="white" />
    </g>
    <defs>
        <clipPath id="clip0_254_189">
            <rect width="13" height="13" fill="white" />
        </clipPath>
    </defs>
</svg>
    