<svg width="82" height="75" viewBox="0 0 82 75" fill="none" xmlns="http://www.w3.org/2000/svg">
    <path
        d="M76.3947 29.5102L76.2468 29.7697L76.4051 30.0229C79.1611 34.4326 80.5272 39.5287 80.5272 44.8864C80.5272 54.1686 77.4734 61.4816 71.3085 66.4873C65.1263 71.5072 55.7442 74.2652 42.9772 74.2652C30.2113 74.2652 20.1529 71.5076 13.2992 66.4725C6.46513 61.4519 2.77215 54.1355 2.77215 44.8864C2.77215 42.8833 2.77389 40.415 2.93919 38.038C3.10528 35.6496 3.43374 33.4068 4.06352 31.835L4.13704 31.6516L4.06523 31.4674C-0.55322 19.6237 -0.0699948 11.9924 2.06604 7.32439C4.20063 2.65958 8.01104 0.884471 10.2498 0.757453C14.1201 0.762848 17.8267 3.06266 20.7233 6.13436C23.6226 9.20897 25.62 12.9628 26.1145 15.699L26.258 16.4935L26.9053 16.011C28.0241 15.177 29.9398 14.5423 32.334 14.1294C34.7101 13.7197 37.4911 13.539 40.2838 13.5687C43.076 13.5984 45.8659 13.8383 48.2583 14.2638C50.6665 14.692 52.6164 15.2991 53.77 16.0321L54.2407 16.3313L54.4868 15.8307C55.9426 12.8694 58.6973 8.55548 62.2117 5.25393C65.7113 1.96631 69.8591 -0.224676 74.18 0.722595C76.3488 2.31762 79.0745 5.63464 80.1941 10.45C81.3243 15.311 80.8265 21.7387 76.3947 29.5102Z"
        fill="black" stroke="black" />
    <ellipse cx="60.6795" cy="43.741" rx="10.4935" ry="10.0372" fill="#FFF500" />
    <ellipse cx="60.2235" cy="43.2848" rx="8.21229" ry="7.75605" fill="black" />
    <circle cx="60.2238" cy="41.0036" r="2.73743" fill="white" />
    <ellipse cx="23.2684" cy="43.741" rx="10.4935" ry="10.0372" fill="#FFF500" />
    <ellipse cx="22.8119" cy="43.2848" rx="8.21229" ry="7.75605" fill="black" />
    <circle cx="22.8121" cy="41.0036" r="2.73743" fill="white" />
    <path
        d="M45.2359 52.1762C44.6793 50.3929 38 50.8387 38 52.1762C38 53.9594 40.412 55.1482 41.3396 55.2968C43.0095 55.1482 45.7759 53.9062 45.2359 52.1762Z"
        fill="#FFAFBD" />
</svg>
    