<svg width="260" height="131" viewBox="0 0 260 131" fill="none" xmlns="http://www.w3.org/2000/svg">
    <path
        d="M155.604 25.6682C155.604 24.5636 156.499 23.6682 157.604 23.6682H185.32C186.425 23.6682 187.32 24.5636 187.32 25.6682V53.6921C187.32 54.7967 186.425 55.6921 185.32 55.6921H157.604C156.499 55.6921 155.604 54.7967 155.604 53.6921V25.6682Z"
        fill="black" />
    <path
        d="M169.623 3.47202C170.618 2.33981 172.382 2.33981 173.377 3.47203L193.35 26.1861C194.77 27.8012 193.623 30.3369 191.473 30.3369H151.527C149.377 30.3369 148.23 27.8012 149.65 26.1861L169.623 3.47202Z"
        fill="black" />
    <path
        d="M212.14 109.006C212.14 106.133 212.692 103.702 213.797 101.713C214.902 99.6803 216.471 98.0449 218.505 96.8073C220.582 95.5255 223.057 94.6194 225.93 94.089C228.848 93.5144 232.096 93.2271 235.676 93.2271C243.544 93.2271 249.423 94.5531 253.312 97.2051C257.246 99.8129 259.213 103.526 259.213 108.343V111.327C259.213 112.255 258.992 112.896 258.55 113.25C258.152 113.603 257.556 113.78 256.76 113.78H228.052V118.355C228.052 121.007 228.715 122.885 230.041 123.99C231.367 125.14 233.245 125.714 235.676 125.714C238.107 125.714 239.986 125.228 241.312 124.256C242.638 123.283 243.301 121.935 243.301 120.211C243.301 119.195 243.522 118.487 243.964 118.09C244.45 117.648 245.268 117.427 246.417 117.427H256.097C257.246 117.427 258.042 117.648 258.484 118.09C258.97 118.487 259.213 119.195 259.213 120.211C259.213 121.758 258.793 123.151 257.953 124.388C257.158 125.626 255.832 126.687 253.975 127.571C252.163 128.455 249.754 129.14 246.749 129.626C243.743 130.112 240.052 130.355 235.676 130.355C232.096 130.355 228.848 130.068 225.93 129.493C223.057 128.963 220.582 128.057 218.505 126.775C216.471 125.537 214.902 123.902 213.797 121.869C212.692 119.88 212.14 117.449 212.14 114.576V109.006ZM243.301 105.227C243.301 102.575 242.638 100.697 241.312 99.5919C239.986 98.4427 238.107 97.8681 235.676 97.8681C233.29 97.8681 231.411 98.3985 230.041 99.4593C228.715 100.52 228.052 102.31 228.052 104.83V107.813C228.052 108.697 228.582 109.139 229.643 109.139H241.71C242.726 109.139 243.257 108.785 243.301 108.078V105.227Z"
        fill="black" />
    <path
        d="M193.91 94.5527C196.518 94.5527 198.684 94.7958 200.407 95.282C202.175 95.724 203.568 96.387 204.584 97.271C205.645 98.155 206.396 99.2821 206.838 100.652C207.28 101.978 207.501 103.503 207.501 105.227C207.501 106.995 207.126 108.321 206.374 109.205C205.667 110.045 204.385 110.465 202.529 110.465H196.562C194.706 110.465 193.402 110.045 192.65 109.205C191.943 108.321 191.589 106.995 191.589 105.227C191.589 102.973 191.169 101.404 190.33 100.52C189.534 99.6357 188.098 99.1937 186.02 99.1937H182.573C181.512 99.1937 180.981 99.6357 180.981 100.52V123.791C180.981 125.559 180.606 126.863 179.854 127.703C179.147 128.587 177.865 129.029 176.009 129.029H170.042C168.185 129.029 166.882 128.587 166.13 127.703C165.423 126.863 165.069 125.559 165.069 123.791V99.7904C165.069 98.0224 165.423 96.7185 166.13 95.8787C166.882 94.9947 168.185 94.5527 170.042 94.5527H193.91Z"
        fill="black" />
    <path
        d="M110.069 119.018C110.069 117.073 110.4 115.46 111.063 114.178C111.726 112.896 112.743 111.879 114.113 111.128C115.483 110.332 117.229 109.78 119.351 109.471C121.472 109.161 124.014 109.006 126.975 109.006H141.23V104.233C141.23 102.067 140.677 100.476 139.572 99.4593C138.467 98.3985 136.655 97.8681 134.136 97.8681C131.749 97.8681 130.003 98.3322 128.898 99.2604C127.837 100.144 127.307 101.47 127.307 103.238C127.307 104.697 126.975 105.714 126.312 106.288C125.649 106.863 124.544 107.15 122.997 107.15H115.704C114.157 107.15 113.052 106.841 112.389 106.222C111.726 105.603 111.395 104.609 111.395 103.238C111.395 101.868 111.793 100.586 112.588 99.393C113.384 98.1554 114.644 97.0946 116.367 96.2106C118.135 95.2824 120.412 94.5531 123.196 94.0227C126.025 93.4922 129.451 93.2271 133.473 93.2271C137.097 93.2271 140.368 93.5144 143.285 94.089C146.202 94.6636 148.678 95.5918 150.711 96.8736C152.788 98.1112 154.379 99.7245 155.484 101.713C156.589 103.702 157.142 106.133 157.142 109.006V123.791C157.142 125.559 156.766 126.863 156.015 127.703C155.308 128.587 154.026 129.029 152.169 129.029H126.975C124.014 129.029 121.472 128.874 119.351 128.565C117.229 128.256 115.483 127.703 114.113 126.908C112.743 126.156 111.726 125.14 111.063 123.858C110.4 122.576 110.069 120.963 110.069 119.018ZM139.639 124.388C140.567 124.388 141.097 124.035 141.23 123.327V114.775C141.186 114.023 140.655 113.648 139.639 113.648H132.876C130.268 113.648 128.456 114.045 127.44 114.841C126.467 115.592 125.981 116.985 125.981 119.018C125.981 121.051 126.467 122.443 127.44 123.195C128.456 123.99 130.268 124.388 132.876 124.388H139.639Z"
        fill="black" />
    <path
        d="M72.2724 94.5531H86.5269C89.4883 94.5531 92.0298 94.8404 94.1515 95.415C96.2731 95.9454 98.019 96.8515 99.3892 98.1333C100.759 99.3709 101.776 101.006 102.439 103.039C103.102 105.028 103.433 107.459 103.433 110.333V123.791C103.433 125.559 103.058 126.863 102.306 127.703C101.599 128.587 100.317 129.029 98.461 129.029H92.4939C90.6375 129.029 89.3336 128.587 88.5822 127.703C87.875 126.863 87.5214 125.559 87.5214 123.791V106.354C87.5214 103.702 87.0131 101.846 85.9965 100.785C85.0241 99.7245 83.234 99.1941 80.6262 99.1941H73.8636C72.8028 99.1941 72.2724 99.6361 72.2724 100.52V123.791C72.2724 125.559 71.8967 126.863 71.1453 127.703C70.4381 128.587 69.1563 129.029 67.2999 129.029H61.3329C59.4765 129.029 58.1726 128.587 57.4212 127.703C56.714 126.863 56.3604 125.559 56.3604 123.791V81.293C56.3604 76.431 59.0124 74 64.3164 74C69.6204 74 72.2724 76.431 72.2724 81.293V94.5531Z"
        fill="black" />
    <path
        d="M29.7688 97.6691C33.6142 98.8625 36.8187 100.078 39.3823 101.316C41.9459 102.553 43.9791 103.879 45.4819 105.294C47.0289 106.664 48.1118 108.189 48.7306 109.868C49.3936 111.504 49.7251 113.36 49.7251 115.438C49.7251 120.3 47.6256 123.99 43.4266 126.51C39.2718 129.073 32.8628 130.355 24.1996 130.355C16.1993 130.355 10.166 129.117 6.09963 126.642C2.03321 124.167 0 120.454 0 115.504C0 113.736 0.353605 112.432 1.06081 111.592C1.81221 110.708 3.11611 110.266 4.97251 110.266H10.9395C12.7959 110.266 14.0777 110.708 14.7849 111.592C15.5363 112.432 15.912 113.736 15.912 115.504C15.912 117.007 16.0668 118.377 16.3762 119.614C16.6856 120.852 17.1938 121.913 17.901 122.797C18.6525 123.725 19.647 124.432 20.8846 124.918C22.1222 125.449 23.6471 125.714 25.4593 125.714C28.4649 125.714 30.6086 124.963 31.8904 123.46C33.1722 122.001 33.8131 120.101 33.8131 117.758C33.8131 116.609 33.6584 115.548 33.349 114.576C33.0396 113.603 32.3987 112.675 31.4263 111.791C30.4981 110.907 29.15 110.045 27.382 109.205C25.6582 108.321 23.3819 107.437 20.5531 106.553C16.6192 105.316 13.3263 104.056 10.6743 102.774C8.06653 101.448 5.96702 100.056 4.37582 98.5973C2.78461 97.1387 1.6575 95.5696 0.994503 93.89C0.331501 92.1662 0 90.2877 0 88.2545C0 83.4366 2.03321 79.7459 6.09963 77.1823C10.2102 74.6187 16.354 73.3369 24.5311 73.3369C28.5091 73.3369 31.9567 73.6684 34.8739 74.3314C37.7911 74.9944 40.2 75.8784 42.1006 76.9834C44.0012 78.0884 45.4156 79.3923 46.3438 80.8951C47.272 82.3537 47.7361 83.9007 47.7361 85.5361C47.7361 87.3042 47.3604 88.6302 46.609 89.5142C45.9018 90.354 44.62 90.7739 42.7636 90.7739H36.7966C34.9402 90.7739 33.6363 90.354 32.8849 89.5142C32.1777 88.6302 31.8241 87.3042 31.8241 85.5361C31.8241 83.1051 31.2274 81.2487 30.034 79.9669C28.8406 78.6409 26.7853 77.9779 23.8681 77.9779C21.1719 77.9779 19.1607 78.6409 17.8347 79.9669C16.5529 81.2487 15.912 83.0167 15.912 85.2709C15.912 86.4201 16.133 87.5473 16.575 88.6523C17.017 89.7573 17.7684 90.8402 18.8292 91.901C19.8901 92.9618 21.3045 93.9784 23.0725 94.9508C24.8405 95.9232 27.0726 96.8293 29.7688 97.6691Z"
        fill="black" />
    <path
        d="M219.09 55.0291C215.421 55.0291 212.35 54.5871 209.874 53.7031C207.399 52.8633 205.388 51.6699 203.841 50.1229C202.294 48.6201 201.189 46.8299 200.526 44.7525C199.863 42.6309 199.531 40.3104 199.531 37.791C199.531 35.2716 199.863 32.9732 200.526 30.8958C201.189 28.7742 202.294 26.962 203.841 25.4592C205.388 23.9122 207.399 22.7188 209.874 21.879C212.35 20.995 215.421 20.553 219.09 20.553H241.632C243.489 20.553 244.77 20.995 245.478 21.879C246.229 22.7188 246.605 24.0227 246.605 25.7907V58.0126C246.605 61.0182 246.163 63.4934 245.279 65.4382C244.439 67.4272 243.091 68.9963 241.234 70.1455C239.422 71.2947 237.057 72.0903 234.14 72.5323C231.267 72.9743 227.797 73.1953 223.731 73.1953C216.394 73.1953 210.957 72.3113 207.421 70.5433C203.929 68.8195 202.184 65.9907 202.184 62.0569C202.184 61.0403 202.25 60.1784 202.382 59.4712C202.515 58.8082 202.758 58.2778 203.112 57.88C203.465 57.4822 203.974 57.1949 204.637 57.0181C205.3 56.8855 206.139 56.8192 207.156 56.8192H213.123C215.156 56.8192 216.482 57.1728 217.101 57.88C217.764 58.6314 218.096 60.0237 218.096 62.0569C218.096 64.4437 218.582 66.1233 219.554 67.0957C220.527 68.0681 222.14 68.5543 224.394 68.5543C226.648 68.5543 228.262 68.0681 229.234 67.0957C230.206 66.1233 230.693 64.4437 230.693 62.0569V55.0291H219.09ZM215.444 37.791C215.444 39.78 215.598 41.548 215.908 43.095C216.217 44.642 216.747 45.968 217.499 47.073C218.25 48.1339 219.223 48.9516 220.416 49.5262C221.654 50.1008 223.201 50.3881 225.057 50.3881H229.101C230.162 50.3881 230.693 49.9461 230.693 49.0621V26.52C230.693 25.636 230.162 25.194 229.101 25.194H225.057C223.201 25.194 221.654 25.4813 220.416 26.0559C219.223 26.6305 218.25 27.4703 217.499 28.5753C216.747 29.6361 216.217 30.94 215.908 32.487C215.598 34.034 215.444 35.802 215.444 37.791Z"
        fill="black" />
    <path
        d="M137.844 49.7915C137.844 51.5595 137.468 52.8634 136.717 53.7032C136.009 54.5872 134.728 55.0292 132.871 55.0292H126.904C125.048 55.0292 123.744 54.5872 122.992 53.7032C122.285 52.8634 121.932 51.5595 121.932 49.7915V28.5092C121.932 23.6472 124.584 21.2162 129.888 21.2162C135.192 21.2162 137.844 23.6472 137.844 28.5092V49.7915ZM137.844 9.94512C137.844 12.0667 137.181 13.8126 135.855 15.1828C134.529 16.553 132.54 17.2381 129.888 17.2381C127.236 17.2381 125.247 16.553 123.921 15.1828C122.595 13.8126 121.932 12.0667 121.932 9.94512C121.932 7.82351 122.595 6.07761 123.921 4.7074C125.247 3.3372 127.236 2.6521 129.888 2.6521C132.54 2.6521 134.529 3.3372 135.855 4.7074C137.181 6.07761 137.844 7.82351 137.844 9.94512Z"
        fill="black" />
    <path
        d="M113.635 19.8901C114.563 19.8901 115.182 20.2216 115.491 20.8846C115.801 21.5476 115.668 22.4316 115.093 23.5366L101.436 51.0512C101.038 51.8468 100.64 52.4877 100.242 52.9739C99.8886 53.5043 99.4687 53.9242 98.9825 54.2336C98.5405 54.543 98.0101 54.7419 97.3913 54.8303C96.7725 54.9629 95.999 55.0292 95.0708 55.0292H91.4906C90.5624 55.0292 89.7889 54.9629 89.1701 54.8303C88.5955 54.6977 88.0872 54.4767 87.6452 54.1673C87.2032 53.8579 86.7833 53.438 86.3855 52.9076C85.9877 52.4214 85.5678 51.8026 85.1258 51.0512L73.1918 31.559C72.352 30.1888 71.8879 28.8186 71.7995 27.4484C71.7111 26.034 71.9321 24.7743 72.4625 23.6692C73.0371 22.52 73.8769 21.6139 74.9819 20.9509C76.1311 20.2437 77.4792 19.8901 79.0262 19.8901C80.0428 19.8901 80.9268 20.0448 81.6782 20.3542C82.4296 20.6194 83.1147 21.0172 83.7335 21.5476C84.3965 22.078 84.9932 22.7189 85.5236 23.4703C86.054 24.2217 86.6065 25.0616 87.1811 25.9898L99.2477 45.6809L111.115 22.078C111.513 21.3266 111.889 20.7741 112.243 20.4205C112.64 20.0669 113.104 19.8901 113.635 19.8901Z"
        fill="black" />
    <path
        d="M66.623 49.7915C66.623 51.5595 66.2473 52.8634 65.4959 53.7032C64.7887 54.5872 63.5069 55.0292 61.6505 55.0292H55.6835C53.827 55.0292 52.5231 54.5872 51.7717 53.7032C51.0645 52.8634 50.7109 51.5595 50.7109 49.7915V28.5092C50.7109 23.6472 53.3629 21.2162 58.667 21.2162C63.971 21.2162 66.623 23.6472 66.623 28.5092V49.7915ZM66.623 9.94512C66.623 12.0667 65.96 13.8126 64.634 15.1828C63.308 16.553 61.319 17.2381 58.667 17.2381C56.015 17.2381 54.0259 16.553 52.6999 15.1828C51.3739 13.8126 50.7109 12.0667 50.7109 9.94512C50.7109 7.82351 51.3739 6.07761 52.6999 4.7074C54.0259 3.3372 56.015 2.6521 58.667 2.6521C61.319 2.6521 63.308 3.3372 64.634 4.7074C65.96 6.07761 66.623 7.82351 66.623 9.94512Z"
        fill="black" />
    <path
        d="M5 7.29302C5 2.43101 7.65201 0 12.956 0C18.26 0 20.912 2.43101 20.912 7.29302V49.0621C20.912 49.9461 21.4424 50.3881 22.5033 50.3881H29.3322C30.3488 50.3881 30.8571 49.9461 30.8571 49.0621C30.8571 47.4267 31.5201 46.0786 32.8461 45.0178C34.1721 43.957 36.1611 43.4266 38.8131 43.4266C41.4651 43.4266 43.4541 43.9791 44.7801 45.0841C46.1061 46.1891 46.7691 47.7361 46.7691 49.7251V51.7804C46.7691 52.9296 46.5039 53.7473 45.9735 54.2335C45.4431 54.764 44.4928 55.0291 43.1226 55.0291H9.97251C8.11611 55.0291 6.81221 54.5871 6.0608 53.7031C5.3536 52.8633 5 51.5594 5 49.7914V7.29302Z"
        fill="black" />
</svg>